<svg width="758" height="803" viewBox="0 0 758 803" fill="none" xmlns="http://www.w3.org/2000/svg">
<path d="M334.412 41.2442C334.412 43.0911 335.909 44.5884 337.756 44.5884H379V63.5384C379 65.3853 380.497 66.8825 382.344 66.8825H401.294V89.1766H382.344C380.497 89.1766 379 90.6738 379 92.5207V133.765H360.05C358.203 133.765 356.706 135.262 356.706 137.109V152.715C356.706 154.562 358.203 156.059 360.05 156.059H375.656C377.503 156.059 379 154.562 379 152.715V133.765H401.294V175.009C401.294 176.856 402.791 178.353 404.638 178.353H423.588V200.647H404.638C402.791 200.647 401.294 202.144 401.294 203.991V222.941H382.344C380.497 222.941 379 224.439 379 226.285V241.891C379 243.738 380.497 245.235 382.344 245.235H397.95C399.797 245.235 401.294 243.738 401.294 241.891V222.941H423.588V241.891C423.588 243.738 425.085 245.235 426.932 245.235H442.538C444.385 245.235 445.882 243.738 445.882 241.891V226.285C445.882 224.439 444.385 222.941 442.538 222.941H423.588V200.647H468.176V267.53H449.226C447.38 267.53 445.882 269.027 445.882 270.874V289.824H426.932C425.085 289.824 423.588 288.326 423.588 286.48V270.874C423.588 269.027 422.091 267.53 420.244 267.53H404.638C402.791 267.53 401.294 269.027 401.294 270.874V312.118H360.05C358.203 312.118 356.706 313.615 356.706 315.462V331.068C356.706 332.915 358.203 334.412 360.05 334.412H401.294L401.294 353.362C401.294 355.209 402.791 356.706 404.638 356.706H423.588V375.656C423.588 377.503 425.085 379 426.932 379H442.538C444.385 379 445.882 377.503 445.882 375.656V360.05C445.882 358.203 444.385 356.706 442.538 356.706H423.588L423.588 337.756C423.588 335.909 422.091 334.412 420.244 334.412H401.294V312.118H445.882V331.068C445.882 332.915 447.38 334.412 449.226 334.412H464.832C466.679 334.412 468.176 335.909 468.176 337.756L468.176 353.362C468.176 355.209 469.674 356.706 471.521 356.706H487.126C488.973 356.706 490.471 358.203 490.471 360.05V379H471.521C469.674 379 468.176 380.497 468.176 382.344V401.294H449.226C447.38 401.294 445.882 402.791 445.882 404.638V423.588H423.588V404.638C423.588 402.791 422.091 401.294 420.244 401.294H401.294V382.344C401.294 380.497 399.797 379 397.95 379H382.344C380.497 379 379 380.497 379 382.344V397.95C379 399.797 380.497 401.294 382.344 401.294H401.294V420.244C401.294 422.091 402.791 423.588 404.638 423.588H423.588V445.882H404.638C402.791 445.882 401.294 447.38 401.294 449.227V487.127C401.294 488.974 402.791 490.471 404.638 490.471H423.588V512.765H404.638C402.791 512.765 401.294 514.262 401.294 516.109V531.715C401.294 533.562 402.791 535.059 404.638 535.059H423.588V557.353H404.638C402.791 557.353 401.294 558.85 401.294 560.697V576.303C401.294 578.15 402.791 579.647 404.638 579.647H423.588V620.891C423.588 622.738 422.091 624.235 420.244 624.235H401.294V605.285C401.294 603.439 399.797 601.941 397.95 601.941H379V582.991C379 581.144 377.503 579.647 375.656 579.647H356.706V557.353H375.656C377.503 557.353 379 555.856 379 554.009V538.403C379 536.556 377.503 535.059 375.656 535.059H356.706V516.109C356.706 514.262 355.209 512.765 353.362 512.765H315.462C313.615 512.765 312.118 514.262 312.118 516.109V531.715C312.118 533.562 313.615 535.059 315.462 535.059H356.706V557.353H337.756C335.909 557.353 334.412 558.85 334.412 560.697V579.647H293.168C291.321 579.647 289.824 581.144 289.824 582.991V598.597C289.824 600.444 291.321 601.941 293.168 601.941H334.412V624.235H293.168C291.321 624.235 289.824 625.733 289.824 627.58V643.185C289.824 645.032 291.321 646.53 293.168 646.53H334.412V687.774C334.412 689.621 335.909 691.118 337.756 691.118H353.362C355.209 691.118 356.706 689.621 356.706 687.774V646.53H375.656C377.503 646.53 379 645.032 379 643.185V624.235H401.294V643.185C401.294 645.032 402.791 646.53 404.638 646.53H442.538C444.385 646.53 445.882 648.027 445.882 649.874V665.48C445.882 667.326 444.385 668.824 442.538 668.824H426.932C425.085 668.824 423.588 670.321 423.588 672.168V713.412H382.344C380.497 713.412 379 714.909 379 716.756V735.706H360.05C358.203 735.706 356.706 737.203 356.706 739.05V776.95C356.706 778.797 358.203 780.294 360.05 780.294H375.656C377.503 780.294 379 778.797 379 776.95V735.706H420.244C422.091 735.706 423.588 734.209 423.588 732.362V713.412H442.538C444.385 713.412 445.882 711.915 445.882 710.068V694.462C445.882 692.615 447.38 691.118 449.226 691.118H468.176V735.706H449.226C447.38 735.706 445.882 737.203 445.882 739.05V754.656C445.882 756.503 444.385 758 442.538 758H426.932C425.085 758 423.588 759.497 423.588 761.344V776.95C423.588 778.797 425.085 780.294 426.932 780.294H464.832C466.679 780.294 468.176 781.791 468.176 783.638V799.244C468.176 801.091 466.679 802.588 464.832 802.588H293.168C291.321 802.588 289.824 801.091 289.824 799.244V783.638C289.824 781.791 288.326 780.294 286.479 780.294H270.874C269.027 780.294 267.529 781.791 267.529 783.638V799.244C267.529 801.091 266.032 802.588 264.185 802.588H3.34409C1.49718 802.588 -2.57492e-05 801.091 -2.57492e-05 799.244V3.34423C-2.57492e-05 1.49733 1.49719 0.000116348 3.34409 0.000116348H241.891C243.738 0.000116348 245.235 1.49733 245.235 3.34423V18.9501C245.235 20.797 246.732 22.2942 248.579 22.2942H267.529V41.2442C267.529 43.0911 269.027 44.5884 270.874 44.5884H289.824V63.5384C289.824 65.3853 291.321 66.8825 293.168 66.8825H308.774C310.62 66.8825 312.118 65.3853 312.118 63.5384V47.9325C312.118 46.0856 310.62 44.5884 308.774 44.5884H289.824V22.2942H308.774C310.62 22.2942 312.118 20.797 312.118 18.9501V3.34423C312.118 1.49733 313.615 0.000116348 315.462 0.000116348H375.656C377.503 0.000116348 379 1.49733 379 3.34423V22.2942H337.756C335.909 22.2942 334.412 23.7914 334.412 25.6384V41.2442ZM397.95 691.118C399.797 691.118 401.294 689.621 401.294 687.774V672.168C401.294 670.321 399.797 668.824 397.95 668.824H382.344C380.497 668.824 379 670.321 379 672.168V687.774C379 689.621 380.497 691.118 382.344 691.118H397.95ZM137.109 758C135.262 758 133.765 759.497 133.765 761.344V776.95C133.765 778.797 135.262 780.294 137.109 780.294H152.715C154.562 780.294 156.059 778.797 156.059 776.95V761.344C156.059 759.497 154.562 758 152.715 758H137.109ZM315.462 758C313.615 758 312.118 759.497 312.118 761.344V776.95C312.118 778.797 313.615 780.294 315.462 780.294H331.068C332.915 780.294 334.412 778.797 334.412 776.95V761.344C334.412 759.497 332.915 758 331.068 758H315.462ZM308.774 735.706C310.62 735.706 312.118 734.209 312.118 732.362V716.756C312.118 714.909 310.62 713.412 308.774 713.412H293.168C291.321 713.412 289.824 714.909 289.824 716.756V732.362C289.824 734.209 291.321 735.706 293.168 735.706H308.774ZM159.403 691.118C157.556 691.118 156.059 692.615 156.059 694.462V710.068C156.059 711.915 157.556 713.412 159.403 713.412H175.009C176.856 713.412 178.353 711.915 178.353 710.068V694.462C178.353 692.615 176.856 691.118 175.009 691.118H159.403ZM248.579 646.53C246.732 646.53 245.235 648.027 245.235 649.874V665.48C245.235 667.326 246.732 668.824 248.579 668.824H264.185C266.032 668.824 267.529 667.326 267.529 665.48V649.874C267.529 648.027 266.032 646.53 264.185 646.53H248.579ZM137.109 579.647C135.262 579.647 133.765 581.144 133.765 582.991V601.941H114.815C112.968 601.941 111.471 603.439 111.471 605.285V620.891C111.471 622.738 112.968 624.235 114.815 624.235H130.421C132.267 624.235 133.765 622.738 133.765 620.891V601.941H152.715C154.562 601.941 156.059 600.444 156.059 598.597V582.991C156.059 581.144 154.562 579.647 152.715 579.647H137.109ZM203.991 579.647C202.144 579.647 200.647 581.144 200.647 582.991V598.597C200.647 600.444 202.144 601.941 203.991 601.941H219.597C221.444 601.941 222.941 600.444 222.941 598.597V582.991C222.941 581.144 221.444 579.647 219.597 579.647H203.991ZM270.874 512.765C269.027 512.765 267.529 514.262 267.529 516.109V531.715C267.529 533.562 269.027 535.059 270.874 535.059H286.479C288.326 535.059 289.824 533.562 289.824 531.715V516.109C289.824 514.262 288.326 512.765 286.479 512.765H270.874ZM375.656 490.471C377.503 490.471 379 488.974 379 487.127V471.521C379 469.674 377.503 468.177 375.656 468.177H360.05C358.203 468.177 356.706 469.674 356.706 471.521V487.127C356.706 488.974 358.203 490.471 360.05 490.471H375.656ZM293.168 401.294C291.321 401.294 289.824 402.791 289.824 404.638V420.244C289.824 422.091 291.321 423.588 293.168 423.588L312.118 423.588V445.882L293.168 445.882C291.321 445.882 289.824 447.38 289.824 449.227V464.832C289.824 466.679 291.321 468.177 293.168 468.177L312.118 468.177V487.127C312.118 488.974 313.615 490.471 315.462 490.471H331.068C332.915 490.471 334.412 488.974 334.412 487.127V471.521C334.412 469.674 332.915 468.177 331.068 468.177H312.118V445.882H353.362C355.209 445.882 356.706 444.385 356.706 442.538V426.932C356.706 425.086 355.209 423.588 353.362 423.588H312.118V404.638C312.118 402.791 310.62 401.294 308.774 401.294L293.168 401.294ZM353.362 401.294C355.209 401.294 356.706 399.797 356.706 397.95V382.344C356.706 380.497 355.209 379 353.362 379H334.412V360.05C334.412 358.203 332.915 356.706 331.068 356.706H315.462C313.615 356.706 312.118 358.203 312.118 360.05V375.656C312.118 377.503 313.615 379 315.462 379H334.412V397.95C334.412 399.797 335.909 401.294 337.756 401.294H353.362ZM159.403 356.706C157.556 356.706 156.059 358.203 156.059 360.05V375.656C156.059 377.503 157.556 379 159.403 379H175.009C176.856 379 178.353 377.503 178.353 375.656V356.706H200.647V375.656C200.647 377.503 202.144 379 203.991 379H219.597C221.444 379 222.941 377.503 222.941 375.656V360.05C222.941 358.203 221.444 356.706 219.597 356.706H200.647V337.756C200.647 335.909 199.15 334.412 197.303 334.412H181.697C179.85 334.412 178.353 335.909 178.353 337.756V356.706H159.403ZM114.815 312.118C112.968 312.118 111.471 313.615 111.471 315.462V331.068C111.471 332.915 112.968 334.412 114.815 334.412H130.421C132.267 334.412 133.765 332.915 133.765 331.068V315.462C133.765 313.615 132.267 312.118 130.421 312.118H114.815ZM200.647 70.2266C200.647 68.3797 199.15 66.8825 197.303 66.8825H181.697C179.85 66.8825 178.353 68.3797 178.353 70.2266V85.8325C178.353 87.6794 179.85 89.1766 181.697 89.1766H197.303C199.15 89.1766 200.647 87.6794 200.647 85.8325V70.2266ZM331.068 245.235C332.915 245.235 334.412 243.738 334.412 241.891V226.285C334.412 224.439 332.915 222.941 331.068 222.941H315.462C313.615 222.941 312.118 224.439 312.118 226.285V241.891C312.118 243.738 313.615 245.235 315.462 245.235H331.068ZM375.656 289.824C377.503 289.824 379 288.326 379 286.48V270.874C379 269.027 377.503 267.53 375.656 267.53H337.756C335.909 267.53 334.412 269.027 334.412 270.874V286.48C334.412 288.326 335.909 289.824 337.756 289.824H375.656ZM181.697 267.53C179.85 267.53 178.353 269.027 178.353 270.874V286.48C178.353 288.326 179.85 289.824 181.697 289.824H197.303C199.15 289.824 200.647 288.326 200.647 286.48V270.874C200.647 269.027 199.15 267.53 197.303 267.53H181.697ZM137.109 200.647C135.262 200.647 133.765 202.144 133.765 203.991V219.597C133.765 221.444 135.262 222.941 137.109 222.941H156.059V241.891C156.059 243.738 157.556 245.235 159.403 245.235H175.009C176.856 245.235 178.353 243.738 178.353 241.891V226.285C178.353 224.439 176.856 222.941 175.009 222.941H156.059V203.991C156.059 202.144 154.562 200.647 152.715 200.647H137.109ZM248.579 200.647C246.732 200.647 245.235 202.144 245.235 203.991V222.941H226.285C224.438 222.941 222.941 224.439 222.941 226.285V241.891C222.941 243.738 224.438 245.235 226.285 245.235H245.235V267.53H226.285C224.438 267.53 222.941 269.027 222.941 270.874V286.48C222.941 288.326 224.438 289.824 226.285 289.824H241.891C243.738 289.824 245.235 288.326 245.235 286.48V267.53H264.185C266.032 267.53 267.529 266.032 267.529 264.185V245.235H286.479C288.326 245.235 289.824 243.738 289.824 241.891V226.285C289.824 224.439 288.326 222.941 286.479 222.941H267.529V203.991C267.529 202.144 266.032 200.647 264.185 200.647H248.579ZM293.168 178.353C291.321 178.353 289.824 179.85 289.824 181.697V197.303C289.824 199.15 291.321 200.647 293.168 200.647H308.774C310.62 200.647 312.118 199.15 312.118 197.303V178.353H331.068C332.915 178.353 334.412 176.856 334.412 175.009V159.403C334.412 157.556 332.915 156.059 331.068 156.059H315.462C313.615 156.059 312.118 157.556 312.118 159.403V178.353H293.168ZM137.109 133.765C135.262 133.765 133.765 135.262 133.765 137.109V152.715C133.765 154.562 135.262 156.059 137.109 156.059H152.715C154.562 156.059 156.059 154.562 156.059 152.715V137.109C156.059 135.262 154.562 133.765 152.715 133.765H137.109ZM289.824 130.421C289.824 132.268 291.321 133.765 293.168 133.765H308.774C310.62 133.765 312.118 132.268 312.118 130.421V111.471H331.068C332.915 111.471 334.412 109.973 334.412 108.127V92.5207C334.412 90.6738 332.915 89.1766 331.068 89.1766H315.462C313.615 89.1766 312.118 90.6738 312.118 92.5207V111.471H289.824V92.5207C289.824 90.6738 288.326 89.1766 286.479 89.1766H270.874C269.027 89.1766 267.529 90.6738 267.529 92.5207V108.127C267.529 109.973 269.027 111.471 270.874 111.471H289.824V130.421ZM197.303 44.5884C199.15 44.5884 200.647 43.0911 200.647 41.2442V25.6384C200.647 23.7914 199.15 22.2942 197.303 22.2942H181.697C179.85 22.2942 178.353 23.7914 178.353 25.6384V41.2442C178.353 43.0911 179.85 44.5884 181.697 44.5884H197.303ZM133.765 44.5884H152.715C154.562 44.5884 156.059 43.0911 156.059 41.2442V25.6384C156.059 23.7914 154.562 22.2942 152.715 22.2942H137.109C135.262 22.2942 133.765 23.7914 133.765 25.6384V44.5884H114.815C112.968 44.5884 111.471 46.0856 111.471 47.9325V63.5384C111.471 65.3853 112.968 66.8825 114.815 66.8825H133.765V85.8325C133.765 87.6794 135.262 89.1766 137.109 89.1766H152.715C154.562 89.1766 156.059 87.6794 156.059 85.8325V70.2266C156.059 68.3797 154.562 66.8825 152.715 66.8825H133.765V44.5884Z" fill="#E040F9" fill-opacity="0.06"/>
<path d="M289.824 22.2942V3.34423C289.824 1.49733 288.326 0.000116348 286.479 0.000116348H270.874C269.027 0.000116348 267.529 1.49733 267.529 3.34423V22.2942H289.824Z" fill="#E040F9" fill-opacity="0.06"/>
<path d="M471.521 44.5884C469.674 44.5884 468.176 46.0856 468.176 47.9325V66.8825H445.882V47.9325C445.882 46.0856 444.385 44.5884 442.538 44.5884H426.932C425.085 44.5884 423.588 46.0856 423.588 47.9325V66.8825H401.294V47.9325C401.294 46.0856 399.797 44.5884 397.95 44.5884H379V22.2942H397.95C399.797 22.2942 401.294 20.797 401.294 18.9501V3.34423C401.294 1.49733 402.791 0.000116348 404.638 0.000116348H420.244C422.091 0.000116348 423.588 1.49733 423.588 3.34423V18.9501C423.588 20.797 425.085 22.2942 426.932 22.2942H442.538C444.385 22.2942 445.882 20.797 445.882 18.9501V3.34423C445.882 1.49733 447.38 0.000116348 449.226 0.000116348H464.832C466.679 0.000116348 468.176 1.49733 468.176 3.34423V18.9501C468.176 20.797 469.674 22.2942 471.521 22.2942H512.765V41.2442C512.765 43.0911 511.267 44.5884 509.421 44.5884H471.521Z" fill="#E040F9" fill-opacity="0.06"/>
<path d="M490.471 89.1766V70.2266C490.471 68.3797 488.973 66.8825 487.126 66.8825H468.176V89.1766H490.471Z" fill="#E040F9" fill-opacity="0.06"/>
<path d="M445.882 89.1766V66.8825H423.588V89.1766H445.882Z" fill="#E040F9" fill-opacity="0.06"/>
<path d="M423.588 133.765V89.1766H401.294V133.765H423.588Z" fill="#E040F9" fill-opacity="0.06"/>
<path d="M423.588 178.353V133.765H445.882V152.715C445.882 154.562 447.38 156.059 449.226 156.059H464.832C466.679 156.059 468.176 154.562 468.176 152.715V133.765H490.471V152.715C490.471 154.562 491.968 156.059 493.815 156.059H512.765V178.353H493.815C491.968 178.353 490.471 179.85 490.471 181.697V200.647H468.176V181.697C468.176 179.85 466.679 178.353 464.832 178.353H423.588Z" fill="#E040F9" fill-opacity="0.06"/>
<path d="M468.176 133.765V89.1766H445.882V133.765H468.176Z" fill="#E040F9" fill-opacity="0.06"/>
<path d="M512.765 133.765V89.1766H490.471L490.471 133.765H512.765Z" fill="#E040F9" fill-opacity="0.06"/>
<path d="M554.009 156.059C555.856 156.059 557.353 154.562 557.353 152.715V133.765H512.765V156.059H554.009Z" fill="#E040F9" fill-opacity="0.06"/>
<path d="M598.597 156.059C600.444 156.059 601.941 154.562 601.941 152.715V133.765H579.647V152.715C579.647 154.562 581.144 156.059 582.991 156.059H598.597Z" fill="#E040F9" fill-opacity="0.06"/>
<path d="M620.891 133.765C622.738 133.765 624.235 132.268 624.235 130.421V114.815C624.235 112.968 622.738 111.471 620.891 111.471H601.941L601.941 133.765H620.891Z" fill="#E040F9" fill-opacity="0.06"/>
<path d="M579.647 133.765L579.647 111.471H557.353L557.353 133.765H579.647Z" fill="#E040F9" fill-opacity="0.06"/>
<path d="M557.353 111.471L557.353 89.1766H535.059V108.127C535.059 109.973 536.556 111.471 538.403 111.471H557.353Z" fill="#E040F9" fill-opacity="0.06"/>
<path d="M601.941 111.471L601.941 89.1766H579.647L579.647 111.471H601.941Z" fill="#E040F9" fill-opacity="0.06"/>
<path d="M643.185 89.1766C645.032 89.1766 646.529 87.6794 646.529 85.8325V70.2266C646.529 68.3797 645.032 66.8825 643.185 66.8825H601.941L601.941 89.1766H643.185Z" fill="#E040F9" fill-opacity="0.06"/>
<path d="M665.479 44.5884C667.326 44.5884 668.824 43.0911 668.824 41.2442V25.6384C668.824 23.7914 667.326 22.2942 665.479 22.2942H646.529V41.2442C646.529 43.0911 648.027 44.5884 649.874 44.5884H665.479Z" fill="#E040F9" fill-opacity="0.06"/>
<path d="M620.891 44.5884C622.738 44.5884 624.235 43.0911 624.235 41.2442V22.2942H601.941V44.5884H620.891Z" fill="#E040F9" fill-opacity="0.06"/>
<path d="M601.941 66.8825V44.5884H582.991C581.144 44.5884 579.647 46.0856 579.647 47.9325V66.8825H601.941Z" fill="#E040F9" fill-opacity="0.06"/>
<path d="M579.647 89.1766V66.8825H557.353L557.353 89.1766H579.647Z" fill="#E040F9" fill-opacity="0.06"/>
<path d="M535.059 89.1766L535.059 66.8825H516.109C514.262 66.8825 512.765 68.3797 512.765 70.2266L512.765 89.1766H535.059Z" fill="#E040F9" fill-opacity="0.06"/>
<path d="M535.059 25.6383C535.059 23.7914 533.562 22.2942 531.715 22.2942H512.765L512.765 3.34423C512.765 1.49733 514.262 0.000116348 516.109 0.000116348H554.009C555.856 0.000116348 557.353 1.49733 557.353 3.34423L557.353 66.8825H535.059L535.059 25.6383Z" fill="#E040F9" fill-opacity="0.06"/>
<path d="M601.941 22.2942L601.941 3.34423C601.941 1.49733 600.444 0.000116348 598.597 0.000116348H582.991C581.144 0.000116348 579.647 1.49733 579.647 3.34423V18.9501C579.647 20.797 581.144 22.2942 582.991 22.2942H601.941Z" fill="#E040F9" fill-opacity="0.06"/>
<path d="M646.529 22.2942V3.34423C646.529 1.49733 645.032 0.000116348 643.185 0.000116348H627.579C625.732 0.000116348 624.235 1.49733 624.235 3.34423V22.2942H646.529Z" fill="#E040F9" fill-opacity="0.06"/>
<path d="M732.362 66.8825C734.209 66.8825 735.706 65.3853 735.706 63.5384V47.9325C735.706 46.0856 734.209 44.5884 732.362 44.5884H716.756C714.909 44.5884 713.412 46.0856 713.412 47.9325V66.8825H732.362Z" fill="#E040F9" fill-opacity="0.06"/>
<path d="M710.068 89.1766C711.915 89.1766 713.412 87.6794 713.412 85.8325V66.8825H694.462C692.615 66.8825 691.118 68.3797 691.118 70.2266V85.8325C691.118 87.6794 692.615 89.1766 694.462 89.1766H710.068Z" fill="#E040F9" fill-opacity="0.06"/>
<path d="M710.068 133.765C711.915 133.765 713.412 132.268 713.412 130.421V114.815C713.412 112.968 711.915 111.471 710.068 111.471H694.462C692.615 111.471 691.118 112.968 691.118 114.815V130.421C691.118 132.268 692.615 133.765 694.462 133.765H710.068Z" fill="#E040F9" fill-opacity="0.06"/>
<path d="M710.068 178.353C711.915 178.353 713.412 176.856 713.412 175.009V159.403C713.412 157.556 711.915 156.059 710.068 156.059H694.462C692.615 156.059 691.118 157.556 691.118 159.403V175.009C691.118 176.856 692.615 178.353 694.462 178.353H710.068Z" fill="#E040F9" fill-opacity="0.06"/>
<path d="M665.479 200.647C667.326 200.647 668.824 199.15 668.824 197.303V181.697C668.824 179.85 667.326 178.353 665.479 178.353H649.874C648.027 178.353 646.529 179.85 646.529 181.697V197.303C646.529 199.15 648.027 200.647 649.874 200.647H665.479Z" fill="#E040F9" fill-opacity="0.06"/>
<path d="M620.891 200.647C622.738 200.647 624.235 199.15 624.235 197.303V181.697C624.235 179.85 622.738 178.353 620.891 178.353H605.285C603.438 178.353 601.941 179.85 601.941 181.697V197.303C601.941 199.15 603.438 200.647 605.285 200.647H620.891Z" fill="#E040F9" fill-opacity="0.06"/>
<path d="M601.941 267.53V226.285C601.941 224.439 600.444 222.941 598.597 222.941H582.991C581.144 222.941 579.647 224.439 579.647 226.285V267.53H601.941Z" fill="#E040F9" fill-opacity="0.06"/>
<path d="M554.009 222.941C555.856 222.941 557.353 221.444 557.353 219.597V203.991C557.353 202.144 555.856 200.647 554.009 200.647H535.059V219.597C535.059 221.444 536.556 222.941 538.403 222.941H554.009Z" fill="#E040F9" fill-opacity="0.06"/>
<path d="M535.059 200.647L535.059 181.697C535.059 179.85 533.562 178.353 531.715 178.353H512.765L512.765 200.647H535.059Z" fill="#E040F9" fill-opacity="0.06"/>
<path d="M512.765 245.235L512.765 200.647H490.471V241.891C490.471 243.738 491.968 245.235 493.815 245.235H512.765Z" fill="#E040F9" fill-opacity="0.06"/>
<path d="M531.715 267.53C533.562 267.53 535.059 266.032 535.059 264.185V248.58C535.059 246.733 533.562 245.235 531.715 245.235H512.765L512.765 264.185C512.765 266.032 514.262 267.53 516.109 267.53H531.715Z" fill="#E040F9" fill-opacity="0.06"/>
<path d="M535.059 312.118V293.168C535.059 291.321 533.562 289.824 531.715 289.824H516.109C514.262 289.824 512.765 291.321 512.765 293.168V312.118H535.059Z" fill="#E040F9" fill-opacity="0.06"/>
<path d="M512.765 334.412L512.765 312.118H493.815C491.968 312.118 490.471 313.615 490.471 315.462V331.068C490.471 332.915 491.968 334.412 493.815 334.412H512.765Z" fill="#E040F9" fill-opacity="0.06"/>
<path d="M557.353 334.412V315.462C557.353 313.615 555.856 312.118 554.009 312.118H535.059L535.059 334.412H557.353Z" fill="#E040F9" fill-opacity="0.06"/>
<path d="M576.303 356.706C578.15 356.706 579.647 355.209 579.647 353.362V337.756C579.647 335.909 578.15 334.412 576.303 334.412H557.353L557.353 353.362C557.353 355.209 558.85 356.706 560.697 356.706H576.303Z" fill="#E040F9" fill-opacity="0.06"/>
<path d="M620.891 356.706C622.738 356.706 624.235 355.209 624.235 353.362V334.412H605.285C603.438 334.412 601.941 335.909 601.941 337.756V353.362C601.941 355.209 603.438 356.706 605.285 356.706H620.891Z" fill="#E040F9" fill-opacity="0.06"/>
<path d="M643.185 334.412C645.032 334.412 646.529 332.915 646.529 331.068V315.462C646.529 313.615 645.032 312.118 643.185 312.118H627.579C625.732 312.118 624.235 313.615 624.235 315.462V334.412H643.185Z" fill="#E040F9" fill-opacity="0.06"/>
<path d="M687.774 356.706C689.62 356.706 691.118 355.209 691.118 353.362V337.756C691.118 335.909 689.62 334.412 687.774 334.412H672.168C670.321 334.412 668.824 335.909 668.824 337.756V356.706H687.774Z" fill="#E040F9" fill-opacity="0.06"/>
<path d="M665.479 379C667.326 379 668.824 377.503 668.824 375.656L668.824 356.706H649.874C648.027 356.706 646.529 358.203 646.529 360.05V375.656C646.529 377.503 648.027 379 649.874 379H665.479Z" fill="#E040F9" fill-opacity="0.06"/>
<path d="M713.412 401.294V382.344C713.412 380.497 711.915 379 710.068 379H694.462C692.615 379 691.118 380.497 691.118 382.344V401.294H713.412Z" fill="#E040F9" fill-opacity="0.06"/>
<path d="M691.118 423.588L691.118 401.294H672.168C670.321 401.294 668.824 402.791 668.824 404.638V420.244C668.824 422.091 670.321 423.588 672.168 423.588H691.118Z" fill="#E040F9" fill-opacity="0.06"/>
<path d="M710.068 445.882C711.915 445.882 713.412 444.385 713.412 442.538V423.588H691.118L691.118 442.538C691.118 444.385 692.615 445.882 694.462 445.882H710.068Z" fill="#E040F9" fill-opacity="0.06"/>
<path d="M732.362 423.588C734.209 423.588 735.706 422.091 735.706 420.244V401.294H713.412V423.588H732.362Z" fill="#E040F9" fill-opacity="0.06"/>
<path d="M754.656 401.294C756.503 401.294 758 399.797 758 397.95V382.344C758 380.497 756.503 379 754.656 379H739.05C737.203 379 735.706 380.497 735.706 382.344V401.294H754.656Z" fill="#E040F9" fill-opacity="0.06"/>
<path d="M754.656 557.353C756.503 557.353 758 555.856 758 554.009V538.403C758 536.556 756.503 535.059 754.656 535.059H739.05C737.203 535.059 735.706 536.556 735.706 538.403V557.353H754.656Z" fill="#E040F9" fill-opacity="0.06"/>
<path d="M732.362 579.647C734.209 579.647 735.706 578.15 735.706 576.303V557.353H716.756C714.909 557.353 713.412 558.85 713.412 560.697V576.303C713.412 578.15 714.909 579.647 716.756 579.647H732.362Z" fill="#E040F9" fill-opacity="0.06"/>
<path d="M687.774 557.353C689.62 557.353 691.118 555.856 691.118 554.009V538.403C691.118 536.556 689.62 535.059 687.774 535.059H668.824V554.009C668.824 555.856 670.321 557.353 672.168 557.353H687.774Z" fill="#E040F9" fill-opacity="0.06"/>
<path d="M668.824 535.059L668.824 516.109C668.824 514.262 667.326 512.765 665.479 512.765H649.874C648.027 512.765 646.529 514.262 646.529 516.109V531.715C646.529 533.562 648.027 535.059 649.874 535.059H668.824Z" fill="#E040F9" fill-opacity="0.06"/>
<path d="M620.891 512.765C622.738 512.765 624.235 511.268 624.235 509.421V493.815C624.235 491.968 622.738 490.471 620.891 490.471H605.285C603.438 490.471 601.941 491.968 601.941 493.815V512.765H620.891Z" fill="#E040F9" fill-opacity="0.06"/>
<path d="M598.597 535.059C600.444 535.059 601.941 533.562 601.941 531.715L601.941 512.765H579.647V531.715C579.647 533.562 581.144 535.059 582.991 535.059H598.597Z" fill="#E040F9" fill-opacity="0.06"/>
<path d="M579.647 512.765L579.647 493.815C579.647 491.968 578.15 490.471 576.303 490.471H557.353V512.765H579.647Z" fill="#E040F9" fill-opacity="0.06"/>
<path d="M557.353 490.471L557.353 468.177H535.059V490.471H557.353Z" fill="#E040F9" fill-opacity="0.06"/>
<path d="M576.303 468.177C578.15 468.177 579.647 466.679 579.647 464.832V445.882H560.697C558.85 445.882 557.353 447.38 557.353 449.227L557.353 468.177H576.303Z" fill="#E040F9" fill-opacity="0.06"/>
<path d="M601.941 445.882V426.932C601.941 425.086 600.444 423.588 598.597 423.588H582.991C581.144 423.588 579.647 425.086 579.647 426.932L579.647 445.882H601.941Z" fill="#E040F9" fill-opacity="0.06"/>
<path d="M620.891 468.177C622.738 468.177 624.235 466.679 624.235 464.832V445.882H601.941L601.941 464.832C601.941 466.679 603.438 468.177 605.285 468.177H620.891Z" fill="#E040F9" fill-opacity="0.06"/>
<path d="M643.185 445.882C645.032 445.882 646.529 444.385 646.529 442.538V426.932C646.529 425.086 645.032 423.588 643.185 423.588H627.579C625.732 423.588 624.235 425.086 624.235 426.932V445.882H643.185Z" fill="#E040F9" fill-opacity="0.06"/>
<path d="M620.891 401.294C622.738 401.294 624.235 399.797 624.235 397.95V382.344C624.235 380.497 622.738 379 620.891 379H605.285C603.438 379 601.941 380.497 601.941 382.344V397.95C601.941 399.797 603.438 401.294 605.285 401.294H620.891Z" fill="#E040F9" fill-opacity="0.06"/>
<path d="M576.303 401.294C578.15 401.294 579.647 399.797 579.647 397.95V382.344C579.647 380.497 578.15 379 576.303 379H535.059V397.95C535.059 399.797 536.556 401.294 538.403 401.294H576.303Z" fill="#E040F9" fill-opacity="0.06"/>
<path d="M535.059 379V334.412H512.765L512.765 379H535.059Z" fill="#E040F9" fill-opacity="0.06"/>
<path d="M509.421 401.294C511.267 401.294 512.765 399.797 512.765 397.95L512.765 379H490.471L490.471 401.294H509.421Z" fill="#E040F9" fill-opacity="0.06"/>
<path d="M490.471 691.118V646.53H471.521C469.674 646.53 468.176 648.027 468.176 649.874V691.118H490.471Z" fill="#E040F9" fill-opacity="0.06"/>
<path d="M490.471 624.235V605.285C490.471 603.439 488.973 601.941 487.126 601.941H449.226C447.38 601.941 445.882 603.439 445.882 605.285V620.891C445.882 622.738 447.38 624.235 449.226 624.235H490.471Z" fill="#E040F9" fill-opacity="0.06"/>
<path d="M468.176 557.353V576.303C468.176 578.15 466.679 579.647 464.832 579.647L423.588 579.647V557.353L468.176 557.353Z" fill="#E040F9" fill-opacity="0.06"/>
<path d="M535.059 579.647V557.353H490.471V576.303C490.471 578.15 491.968 579.647 493.815 579.647H535.059Z" fill="#E040F9" fill-opacity="0.06"/>
<path d="M554.009 557.353C555.856 557.353 557.353 555.856 557.353 554.009L557.353 512.765H535.059L535.059 557.353H554.009Z" fill="#E040F9" fill-opacity="0.06"/>
<path d="M535.059 512.765V490.471H512.765V512.765H535.059Z" fill="#E040F9" fill-opacity="0.06"/>
<path d="M490.471 512.765V490.471H471.521C469.674 490.471 468.176 491.968 468.176 493.815V509.421C468.176 511.268 469.674 512.765 471.521 512.765H490.471Z" fill="#E040F9" fill-opacity="0.06"/>
<path d="M509.421 535.059C511.267 535.059 512.765 533.562 512.765 531.715L512.765 512.765H490.471L490.471 535.059H509.421Z" fill="#E040F9" fill-opacity="0.06"/>
<path d="M490.471 557.353V535.059H471.521C469.674 535.059 468.176 536.556 468.176 538.403V557.353H490.471Z" fill="#E040F9" fill-opacity="0.06"/>
<path d="M442.538 535.059C444.385 535.059 445.882 533.562 445.882 531.715V516.109C445.882 514.262 444.385 512.765 442.538 512.765H423.588V535.059L442.538 535.059Z" fill="#E040F9" fill-opacity="0.06"/>
<path d="M442.538 490.471C444.385 490.471 445.882 488.974 445.882 487.127V445.882H423.588V490.471H442.538Z" fill="#E040F9" fill-opacity="0.06"/>
<path d="M490.471 423.588L490.471 401.294H468.176V423.588H490.471Z" fill="#E040F9" fill-opacity="0.06"/>
<path d="M512.765 445.882V426.932C512.765 425.086 511.267 423.588 509.421 423.588H490.471L490.471 445.882H512.765Z" fill="#E040F9" fill-opacity="0.06"/>
<path d="M535.059 468.177L535.059 449.227C535.059 447.38 533.562 445.882 531.715 445.882H512.765L512.765 468.177H535.059Z" fill="#E040F9" fill-opacity="0.06"/>
<path d="M512.765 490.471V468.177H490.471L490.471 490.471H512.765Z" fill="#E040F9" fill-opacity="0.06"/>
<path d="M490.471 468.177V445.882H468.176V464.832C468.176 466.679 469.674 468.177 471.521 468.177H490.471Z" fill="#E040F9" fill-opacity="0.06"/>
<path d="M468.176 445.882V423.588H445.882V445.882H468.176Z" fill="#E040F9" fill-opacity="0.06"/>
<path d="M356.706 601.941V579.647H334.412V601.941L356.706 601.941Z" fill="#E040F9" fill-opacity="0.06"/>
<path d="M379 624.235V601.941L356.706 601.941V624.235L379 624.235Z" fill="#E040F9" fill-opacity="0.06"/>
<path d="M356.706 646.53V624.235L334.412 624.235V646.53H356.706Z" fill="#E040F9" fill-opacity="0.06"/>
<path d="M267.529 245.235V222.941H245.235V245.235H267.529Z" fill="#E040F9" fill-opacity="0.06"/>
<path d="M464.832 312.118C466.679 312.118 468.176 310.621 468.176 308.774V289.824H445.882V312.118H464.832Z" fill="#E040F9" fill-opacity="0.06"/>
<path d="M487.126 289.824C488.973 289.824 490.471 288.326 490.471 286.48V270.874C490.471 269.027 488.973 267.53 487.126 267.53H468.176V289.824H487.126Z" fill="#E040F9" fill-opacity="0.06"/>
<path d="M601.941 579.647V560.697C601.941 558.85 600.444 557.353 598.597 557.353H582.991C581.144 557.353 579.647 558.85 579.647 560.697V576.303C579.647 578.15 581.144 579.647 582.991 579.647H601.941Z" fill="#E040F9" fill-opacity="0.06"/>
<path d="M624.235 601.941V582.991C624.235 581.144 622.738 579.647 620.891 579.647H601.941L601.941 598.597C601.941 600.444 603.438 601.941 605.285 601.941H624.235Z" fill="#E040F9" fill-opacity="0.06"/>
<path d="M643.185 624.235C645.032 624.235 646.529 622.738 646.529 620.891V605.285C646.529 603.439 645.032 601.941 643.185 601.941H624.235V620.891C624.235 622.738 625.732 624.235 627.579 624.235H643.185Z" fill="#E040F9" fill-opacity="0.06"/>
<path d="M710.068 624.235C711.915 624.235 713.412 622.738 713.412 620.891V605.285C713.412 603.439 711.915 601.941 710.068 601.941H694.462C692.615 601.941 691.118 603.439 691.118 605.285V620.891C691.118 622.738 692.615 624.235 694.462 624.235H710.068Z" fill="#E040F9" fill-opacity="0.06"/>
<path d="M665.479 668.824C667.326 668.824 668.824 667.326 668.824 665.48V649.874C668.824 648.027 667.326 646.53 665.479 646.53H649.874C648.027 646.53 646.529 648.027 646.529 649.874V665.48C646.529 667.326 648.027 668.824 649.874 668.824H665.479Z" fill="#E040F9" fill-opacity="0.06"/>
<path d="M665.479 713.412C667.326 713.412 668.824 711.915 668.824 710.068V694.462C668.824 692.615 667.326 691.118 665.479 691.118H649.874C648.027 691.118 646.529 692.615 646.529 694.462V710.068C646.529 711.915 648.027 713.412 649.874 713.412H665.479Z" fill="#E040F9" fill-opacity="0.06"/>
<path d="M687.774 758C689.62 758 691.118 756.503 691.118 754.656V739.05C691.118 737.203 689.62 735.706 687.774 735.706H672.168C670.321 735.706 668.824 737.203 668.824 739.05V754.656C668.824 756.503 670.321 758 672.168 758H687.774Z" fill="#E040F9" fill-opacity="0.06"/>
<path d="M687.774 802.588C689.62 802.588 691.118 801.091 691.118 799.244V783.638C691.118 781.791 689.62 780.294 687.774 780.294H672.168C670.321 780.294 668.824 781.791 668.824 783.638V799.244C668.824 801.091 670.321 802.588 672.168 802.588H687.774Z" fill="#E040F9" fill-opacity="0.06"/>
<path d="M643.185 758C645.032 758 646.529 756.503 646.529 754.656V739.05C646.529 737.203 645.032 735.706 643.185 735.706H624.235V754.656C624.235 756.503 625.732 758 627.579 758H643.185Z" fill="#E040F9" fill-opacity="0.06"/>
<path d="M624.235 735.706V716.756C624.235 714.909 622.738 713.412 620.891 713.412H605.285C603.438 713.412 601.941 714.909 601.941 716.756V732.362C601.941 734.209 603.438 735.706 605.285 735.706H624.235Z" fill="#E040F9" fill-opacity="0.06"/>
<path d="M620.891 668.824C622.738 668.824 624.235 667.326 624.235 665.48V649.874C624.235 648.027 622.738 646.53 620.891 646.53H601.941V668.824H620.891Z" fill="#E040F9" fill-opacity="0.06"/>
<path d="M598.597 691.118C600.444 691.118 601.941 689.621 601.941 687.774L601.941 668.824L579.647 668.824V691.118H598.597Z" fill="#E040F9" fill-opacity="0.06"/>
<path d="M512.765 646.53H535.059V665.48C535.059 667.326 536.556 668.824 538.403 668.824H557.353V691.118H538.403C536.556 691.118 535.059 692.615 535.059 694.462V713.412H493.815C491.968 713.412 490.471 711.915 490.471 710.068L490.471 691.118L509.421 691.118C511.267 691.118 512.765 689.621 512.765 687.774V646.53Z" fill="#E040F9" fill-opacity="0.06"/>
<path d="M512.765 646.53L512.765 624.235H490.471V646.53H512.765Z" fill="#E040F9" fill-opacity="0.06"/>
<path d="M535.059 624.235V601.941H516.109C514.262 601.941 512.765 603.439 512.765 605.285L512.765 624.235H535.059Z" fill="#E040F9" fill-opacity="0.06"/>
<path d="M557.353 601.941V582.991C557.353 581.144 555.856 579.647 554.009 579.647H535.059V601.941H557.353Z" fill="#E040F9" fill-opacity="0.06"/>
<path d="M579.647 624.235V605.285C579.647 603.439 578.15 601.941 576.303 601.941H557.353L557.353 624.235H579.647Z" fill="#E040F9" fill-opacity="0.06"/>
<path d="M601.941 646.53L601.941 627.58C601.941 625.733 600.444 624.235 598.597 624.235H579.647L579.647 646.53H601.941Z" fill="#E040F9" fill-opacity="0.06"/>
<path d="M579.647 668.824V646.53H557.353L557.353 668.824L579.647 668.824Z" fill="#E040F9" fill-opacity="0.06"/>
<path d="M557.353 646.53V624.235H535.059L535.059 646.53L557.353 646.53Z" fill="#E040F9" fill-opacity="0.06"/>
<path d="M576.303 713.412C578.15 713.412 579.647 711.915 579.647 710.068L579.647 691.118L557.353 691.118L557.353 713.412H576.303Z" fill="#E040F9" fill-opacity="0.06"/>
<path d="M557.353 735.706L557.353 713.412H535.059V732.362C535.059 734.209 536.556 735.706 538.403 735.706H557.353Z" fill="#E040F9" fill-opacity="0.06"/>
<path d="M579.647 758V739.05C579.647 737.203 578.15 735.706 576.303 735.706H557.353L557.353 754.656C557.353 756.503 558.85 758 560.697 758H579.647Z" fill="#E040F9" fill-opacity="0.06"/>
<path d="M598.597 780.294C600.444 780.294 601.941 778.797 601.941 776.95V761.344C601.941 759.497 600.444 758 598.597 758L579.647 758L579.647 780.294H598.597Z" fill="#E040F9" fill-opacity="0.06"/>
<path d="M576.303 802.588C578.15 802.588 579.647 801.091 579.647 799.244L579.647 780.294H560.697C558.85 780.294 557.353 781.791 557.353 783.638V799.244C557.353 801.091 558.85 802.588 560.697 802.588H576.303Z" fill="#E040F9" fill-opacity="0.06"/>
<path d="M509.421 802.588C511.267 802.588 512.765 801.091 512.765 799.244V761.344C512.765 759.497 511.267 758 509.421 758H490.471V799.244C490.471 801.091 491.968 802.588 493.815 802.588H509.421Z" fill="#E040F9" fill-opacity="0.06"/>
<path d="M490.471 758L490.471 739.05C490.471 737.203 488.973 735.706 487.126 735.706L468.176 735.706V754.656C468.176 756.503 469.674 758 471.521 758L490.471 758Z" fill="#E040F9" fill-opacity="0.06"/>
<path d="M598.597 312.118C600.444 312.118 601.941 310.621 601.941 308.774V289.824H579.647V308.774C579.647 310.621 581.144 312.118 582.991 312.118H598.597Z" fill="#E040F9" fill-opacity="0.06"/>
<path d="M620.891 289.824C622.738 289.824 624.235 288.326 624.235 286.48V267.53H601.941V289.824H620.891Z" fill="#E040F9" fill-opacity="0.06"/>
<path d="M665.479 289.824C667.326 289.824 668.824 288.326 668.824 286.48V267.53H646.529V286.48C646.529 288.326 648.027 289.824 649.874 289.824H665.479Z" fill="#E040F9" fill-opacity="0.06"/>
<path d="M687.774 267.53C689.62 267.53 691.118 266.032 691.118 264.185V248.58C691.118 246.733 689.62 245.235 687.774 245.235H672.168C670.321 245.235 668.824 246.733 668.824 248.58L668.824 267.53H687.774Z" fill="#E040F9" fill-opacity="0.06"/>
<path d="M646.529 267.53V248.58C646.529 246.733 645.032 245.235 643.185 245.235H627.579C625.732 245.235 624.235 246.733 624.235 248.58V267.53H646.529Z" fill="#E040F9" fill-opacity="0.06"/>
<path d="M579.647 289.824V267.53H560.697C558.85 267.53 557.353 269.027 557.353 270.874V286.48C557.353 288.326 558.85 289.824 560.697 289.824H579.647Z" fill="#E040F9" fill-opacity="0.06"/>
</svg>
