<svg width="34" height="39" viewBox="0 0 34 39" fill="none" xmlns="http://www.w3.org/2000/svg">
<path d="M26.093 32.0398C26.093 31.3132 25.7253 30.6743 25.1728 30.3109C25.4089 29.6702 25.3236 28.93 24.9059 28.355C25.1546 28.0125 25.3023 27.5872 25.3023 27.1267C25.3023 26.1211 24.5984 25.283 23.674 25.112C23.9483 23.8253 22.9963 22.623 21.7442 22.623H16.2093C15.1193 22.623 14.2326 23.5414 14.2326 24.6701C14.2326 25.6758 14.9365 26.5138 15.8608 26.6848C15.7371 27.265 15.8601 27.8727 16.2103 28.355C15.5174 29.3088 15.7582 30.6703 16.7341 31.3121C16.5989 31.6789 16.5705 32.0736 16.6443 32.4492C16.3066 32.4587 16.0805 32.4196 15.7303 32.5103C15.8982 31.832 15.7267 31.0812 15.215 30.551L11.3013 26.4981C10.5289 25.698 9.27828 25.6978 8.50577 26.4981C7.73318 27.2981 7.73302 28.593 8.50569 29.3931L12.4195 33.4462C12.9275 33.9724 13.6411 34.1527 14.2946 33.9859C13.9722 35.2828 14.9235 36.5434 16.2091 36.5434H21.744C22.9854 36.5434 23.9317 35.3616 23.681 34.0868H24.1163C25.2063 34.0869 26.093 33.1686 26.093 32.0398ZM17.7907 29.9927C17.5727 29.9927 17.3954 29.809 17.3954 29.5832C17.3954 29.3575 17.5727 29.1738 17.7907 29.1738H23.3256C23.5436 29.1738 23.7209 29.3575 23.7209 29.5832C23.7209 29.809 23.5436 29.9927 23.3256 29.9927H17.7907ZM23.3256 27.5361H17.7907C17.5727 27.5361 17.3954 27.3524 17.3954 27.1267C17.3954 26.9009 17.5727 26.7173 17.7907 26.7173H23.3256C23.5436 26.7173 23.7209 26.9009 23.7209 27.1267C23.7209 27.3524 23.5436 27.5361 23.3256 27.5361ZM16.2093 24.2607H21.7442C21.9622 24.2607 22.1395 24.4444 22.1395 24.6701C22.1395 24.8959 21.9622 25.0796 21.7442 25.0796C20.7728 25.0796 17.6698 25.0796 16.2093 25.0796C15.9913 25.0796 15.814 24.8959 15.814 24.6701C15.814 24.4444 15.9913 24.2607 16.2093 24.2607ZM18.186 32.0398C18.186 31.814 18.3634 31.6304 18.5814 31.6304H24.1163C24.3343 31.6304 24.5116 31.814 24.5116 32.0398C24.5116 32.2655 24.3343 32.4492 24.1163 32.4492C22.9899 32.4492 19.7101 32.4492 18.5814 32.4492C18.3634 32.4492 18.186 32.2655 18.186 32.0398ZM13.8174 32.4081C13.7562 32.4081 13.6385 32.3926 13.5378 32.2882L9.62398 28.2351C9.52324 28.1308 9.50822 28.0089 9.50822 27.9456C9.50822 27.5813 9.93543 27.3995 10.1832 27.6562L14.0969 31.709C14.3467 31.9679 14.1666 32.4081 13.8174 32.4081ZM22.1395 34.4963C22.1395 34.7221 21.9622 34.9058 21.7442 34.9058H16.2093C15.9913 34.9058 15.814 34.7221 15.814 34.4963C15.814 34.2706 15.9913 34.0869 16.2093 34.0869H21.7442C21.9622 34.0869 22.1395 34.2706 22.1395 34.4963Z" fill="white"/>
<path d="M11.3014 24.48L15.2152 20.4268C15.9859 19.6286 15.9859 18.33 15.2152 17.5318C14.4426 16.7318 13.1923 16.7317 12.4196 17.5319L8.50593 21.585C7.73334 22.385 7.73318 23.6799 8.50585 24.48C9.27829 25.2801 10.5288 25.2801 11.3014 24.48ZM9.62406 22.743L13.5378 18.6898C13.692 18.5301 13.9424 18.5297 14.097 18.6898C14.2511 18.8494 14.2511 19.1092 14.097 19.2688L10.1832 23.3219C9.93678 23.5771 9.50822 23.399 9.50822 23.0324C9.50814 22.9691 9.52324 22.8474 9.62406 22.743Z" fill="white"/>
<path d="M18.1244 4.84751C17.7231 4.68021 17.3791 4.60603 17.3111 4.58597V3.66189C17.7667 3.72945 18.2993 4.02571 18.3607 4.11038L18.8331 3.18639C18.6494 3.07773 18.4328 2.97136 18.1836 2.86712C17.9342 2.76304 17.6675 2.69729 17.3833 2.6701V1.98391H16.9305V2.6701C16.3172 2.73651 15.8045 3.01148 15.5529 3.59745C15.4037 3.94497 15.4023 4.41016 15.5102 4.70142C15.6209 5.0012 15.8513 5.19634 16.1302 5.33669C16.4818 5.5138 16.8593 5.60511 17.0028 5.6526V6.55612C16.8453 6.53352 16.692 6.49618 16.5434 6.44402C16.3247 6.36754 16.0451 6.25011 15.8513 6.11795C15.7747 6.06595 15.7277 6.02853 15.7103 6.00593L15.2379 6.97742C15.7331 7.31929 16.3586 7.51016 16.9304 7.56167V8.35652H17.3832V7.56846C17.9923 7.54201 18.5678 7.32231 18.8396 6.76001C19.01 6.40684 19.0103 5.86091 18.869 5.53026C18.7549 5.26324 18.5416 5.02135 18.1244 4.84751ZM17.0028 4.49082C16.8495 4.44103 16.7348 4.3833 16.6583 4.31755C16.5816 4.25196 16.5435 4.16237 16.5435 4.04921C16.5435 3.81379 16.6966 3.68237 17.0028 3.6551L17.0028 4.49082ZM17.3111 6.56971V5.75446C17.4641 5.80884 17.5865 5.86886 17.6784 5.93453C17.7703 6.0002 17.8162 6.09191 17.8162 6.20966C17.8162 6.43616 17.6478 6.55612 17.3111 6.56971Z" fill="white"/>
<path d="M31.6279 37.3623H27.8878C28.2522 36.7899 28.4651 36.1053 28.4651 35.3699V18.0648C28.4651 16.1828 27.0751 14.6311 25.3023 14.4521V13.6157C25.7389 13.6157 26.093 13.2491 26.093 12.7969V9.5215C26.093 9.06925 25.7389 8.70265 25.3023 8.70265H20.7449C21.5823 7.77751 22.0968 6.53524 22.0968 5.17013C22.0968 2.31939 19.8572 0 17.1044 0C14.3516 0 12.112 2.31931 12.112 5.17013C12.112 6.53524 12.6263 7.77751 13.4638 8.70265H8.69767C8.26097 8.70265 7.90698 9.06925 7.90698 9.5215V12.7969C7.90698 13.2491 8.26097 13.6157 8.69767 13.6157V14.4521C6.92501 14.6311 5.53488 16.1828 5.53488 18.0648V35.3699C5.53488 36.1053 5.74774 36.7899 6.11217 37.3623H1.5814C1.14469 37.3623 0.790698 37.729 0.790698 38.1812C0.790698 38.6333 1.14469 39 1.5814 39H31.6279C32.0645 39 32.4186 38.6333 32.4186 38.1812C32.4186 37.729 32.0645 37.3623 31.6279 37.3623ZM13.6935 5.17013C13.6935 3.22234 15.2236 1.6377 17.1045 1.6377C18.9853 1.6377 20.5154 3.22234 20.5154 5.17013C20.5154 7.11793 18.9853 8.70265 17.1045 8.70265C15.2236 8.70265 13.6935 7.11793 13.6935 5.17013ZM9.48837 10.3403H24.5116V11.978H9.48837V10.3403ZM23.7209 13.6157V14.4346H10.2791V13.6157H23.7209ZM9.04028 37.3623C7.9794 37.3623 7.11628 36.4685 7.11628 35.3699V18.0648C7.11628 16.9662 7.9794 16.0723 9.04028 16.0723H24.9596C26.0206 16.0723 26.8837 16.9662 26.8837 18.0648V35.3699C26.8837 36.4685 26.0206 37.3623 24.9596 37.3623H9.04028Z" fill="white"/>
<path d="M4.74419 13.6157C4.74419 12.2612 3.68006 11.1592 2.37209 11.1592C1.06412 11.1592 0 12.2612 0 13.6157C0 14.9703 1.06412 16.0723 2.37209 16.0723C3.68006 16.0723 4.74419 14.9703 4.74419 13.6157ZM1.5814 13.6157C1.5814 13.1642 1.9361 12.7969 2.37209 12.7969C2.80808 12.7969 3.16279 13.1642 3.16279 13.6157C3.16279 14.0673 2.80808 14.4346 2.37209 14.4346C1.9361 14.4346 1.5814 14.0672 1.5814 13.6157Z" fill="white"/>
<path d="M31.2326 4.6084C29.7066 4.6084 28.4651 5.89408 28.4651 7.47438C28.4651 9.05467 29.7066 10.3403 31.2326 10.3403C32.7585 10.3403 34 9.05467 34 7.47438C34 5.89408 32.7585 4.6084 31.2326 4.6084ZM31.2326 8.70265C30.5786 8.70265 30.0465 8.15165 30.0465 7.47438C30.0465 6.79711 30.5786 6.2461 31.2326 6.2461C31.8865 6.2461 32.4186 6.79711 32.4186 7.47438C32.4186 8.15156 31.8865 8.70265 31.2326 8.70265Z" fill="white"/>
</svg>
